<?xml version="1.0" encoding="UTF-8"?>
<svg id="Layer_2" data-name="Layer 2" xmlns="http://www.w3.org/2000/svg" viewBox="0 0 172.13 277.09">
  <g id="Layer_2-2" data-name="Layer 2">
    <path d="m81.35,277.09c-19.7.07-37.74-3.92-54.18-14.04-3.73-2.29-7.23-4.87-10.57-7.69C5.42,245.94.73,233.5.08,219.3c-.89-19.42,5.52-36.33,17.78-51.29,8.78-10.7,17.74-21.14,29.04-29.37,3.8-2.77,7.03-6.3,9.65-10.3,3.63-5.52,4.37-11.43,2.57-17.73-1.85-6.45-5.52-11.8-10.01-16.66-6.69-7.25-14.25-13.46-22.37-19.04-6.16-4.23-11.89-8.96-16.26-15.16-6.16-8.73-6.22-15.92.16-24.51,4.53-6.1,10.75-10.27,17.08-14.21,4.94-3.08,10.2-5.59,15.69-7.57C64.21,5.96,85.65.96,107.73.1c10.62-.41,21.41.46,32.04,2.01,2.87.42,5.78.61,8.64,1.13,8.67,1.58,13.7,8.88,12.06,17.59-1.09,5.79-3.31,11.16-7.03,15.78-5.35,6.65-10.83,13.2-16.18,19.86-7.98,9.95-15.39,20.25-20.05,32.28-3.08,7.95-4.18,16.16-3.35,24.61.93,9.46,5.58,17.19,11.78,24.06,4.63,5.12,9.63,9.89,14.93,14.34,14.01,11.73,23.99,26.12,29.26,43.75,3.18,10.65,3.19,21.06-.7,31.51-2.23,5.98-4.96,11.71-8.25,17.17-5.34,8.86-13.13,14.99-22.23,19.52-18.21,9.06-37.53,13.48-57.29,13.38Z"/>
  </g>
</svg>