<?xml version="1.0" encoding="UTF-8"?>
<svg id="Layer_2" data-name="Layer 2" xmlns="http://www.w3.org/2000/svg" viewBox="0 0 184.92 310.29">
  <g id="Layer_2-2" data-name="Layer 2">
    <path d="m0,87.16c.4-17.07.7-35.22,3.24-53.24.69-4.87,1.83-9.61,3.36-14.29,2.25-6.9,6.95-10.8,13.95-12.31,6.95-1.5,14.03-1.89,21.07-2.6,13.72-1.39,27.44-2.98,41.2-3.81,16.11-.98,32.26-1.85,48.32,1.27,5.87,1.14,11.87,1.61,17.81,2.37,6.45.83,10.51,4.52,12.66,10.51,1.37,3.8,1.97,7.79,2.17,11.75,1.2,23.24,4.96,46.19,7.41,69.29,2.32,21.84,4.73,43.66,7.06,65.5,2.01,18.77,4.15,37.52,5.9,56.31,1.13,12.13.9,24.33-.02,36.47-.61,8.14-1.75,16.24-2.74,24.34-1.92,15.75-7.22,21.54-22.79,24.87-10.49,2.24-21.16,3.4-31.82,4.42-17.9,1.71-35.85,2.65-53.85,2.18-7.44-.19-14.85-.77-22.23-1.88-10.32-1.55-17.12-7.2-20.76-16.97-3.56-9.57-5.61-19.54-8.01-29.41-7.48-30.74-12.71-61.91-16.01-93.34-1.93-18.4-4.31-36.77-5.08-55.29-.35-8.34-.64-16.68-.86-26.11Z"/>
  </g>
</svg>