<?xml version="1.0" encoding="UTF-8"?>
<svg id="Layer_2" data-name="Layer 2" xmlns="http://www.w3.org/2000/svg" viewBox="0 0 310.99 308.8">
  <g id="Layer_2-2" data-name="Layer 2">
    <path d="m154.23,308.67c-20.01-.58-39.92-2.16-58.95-9.04-45.13-16.32-75.64-47.05-90.35-92.89C.28,192.25-.9,177.28.63,162.05c.92-9.24,2.23-18.37,4.1-27.45,4.73-23.04,14.49-43.7,29.39-61.9,15.97-19.5,34.7-35.61,57.65-46.45,13.75-6.5,28.4-10.05,43.29-12.6,15.57-2.66,31.21-4.95,46.77-7.65,5.89-1.02,11.72-2.55,17.47-4.21,11.53-3.33,22.62-1.68,33.61,2.37,14.59,5.38,27.15,13.66,37.69,25.17,11.85,12.93,22.99,26.38,29.49,42.86,10.26,26.04,14.03,52.72,8.08,80.59-7.46,34.97-20.76,67.13-42.22,95.95-13.19,17.71-29.53,31.41-48.59,42.15-4.75,2.68-9.6,5.13-14.56,7.41-15.42,7.08-31.41,11.36-48.56,10.39Z"/>
  </g>
</svg>