<?xml version="1.0" encoding="UTF-8"?>
<svg id="Layer_2" data-name="Layer 2" xmlns="http://www.w3.org/2000/svg" viewBox="0 0 301.41 309.34">
  <g id="Layer_2-2" data-name="Layer 2">
    <path d="m.12,70.79c0-7.26-.55-14.53.75-21.75.36-1.98.75-3.93,1.71-5.72,2.93-5.45,8.26-5.85,11.46-.64,4.1,6.67,7.32,13.82,9.62,21.29,2.25,7.29,4.09,14.7,6.14,22.04.48,1.7.54,4.28,2.47,4.44,2.4.21,2.65-2.62,3.37-4.33,3.51-8.29,4.48-17.18,5.83-25.98.9-5.93,1.89-11.84,3.46-17.63.76-2.83,1.82-5.52,3.57-7.9,4.1-5.58,9.85-6.73,15.79-3.1,3.33,2.03,5.75,4.97,7.87,8.18,3.42,5.18,6.06,10.74,8.23,16.55,2.87,7.65,5.81,15.28,8.82,22.88,1.61,4.08,3.66,7.91,6.97,10.95,5.43,5,11.46,4.76,16.08-.97,4.98-6.17,8.26-13.24,9.91-21.01,1.85-8.71,4.03-17.34,6.59-25.86,1.37-4.55,3.1-8.93,5.98-12.76,4.88-6.48,11.9-7.69,18.72-3.32,4.11,2.64,6.83,6.48,9.28,10.54,6.99,11.58,11.73,24.16,16.1,36.89,1.06,3.09,1.95,6.26,3.81,9.01,2.57,3.81,4.51,4.23,8.02,1.43,3.42-2.74,6.4-5.96,8.47-9.87,6.12-11.58,11.71-23.37,15.49-35.97,2.72-9.06,6.65-17.67,10.36-26.36,3.33-7.81,9.2-11.23,17.38-11.74,12.38-.78,22.87,3.7,31.86,11.71,12.7,11.32,19.48,26.01,22.94,42.41,4.16,19.69,5.06,39.57,3.65,59.62-.37,5.25-.2,10.53-.33,15.8-.41,16.71-.4,33.44-1.38,50.11-1.28,21.92-2.76,43.87-7.31,65.44-4.42,20.94-15.31,37.84-32.28,50.89-5.3,4.08-11.09,6.91-17.68,8.02-6.98,1.18-14,2.54-21.09,2.2-10.58-.51-18.82-6.11-26.2-13.18-3.41-3.27-6.73-6.63-10.09-9.96-6.03-5.97-13.58-8.98-21.65-10.84-3.24-.74-6.47-.38-9.6.99-7.01,3.07-12.89,7.39-16.62,14.28-1.82,3.35-3.88,6.57-5.72,9.91-1.93,3.48-4.85,5.59-8.34,7.48-10.96,5.94-22.63,4.34-34.17,3.62-6.14-.39-12.23-1.68-18.31-2.76-11.77-2.08-21.96-7.39-30.76-15.44-2.3-2.1-4.27-4.51-5.84-7.16-8.71-14.73-16.78-29.74-21.18-46.45-2.92-11.1-4.82-22.36-5.68-33.8-1.32-17.56-2.9-35.1-3.87-52.68-.86-15.41-1.17-30.86-1.47-46.29-.21-11.08-1.56-22.11-1.12-33.21Z"/>
  </g>
</svg>