<?xml version="1.0" encoding="UTF-8"?>
<svg id="Layer_2" data-name="Layer 2" xmlns="http://www.w3.org/2000/svg" viewBox="0 0 297.89 281.6">
  <g id="Layer_2-2" data-name="Layer 2">
    <g id="Layer_2-2" data-name="Layer 2-2">
      <path d="m185.68.03c9.09-.08,17.6.46,26.05,1.95,9.44,1.67,16.4,8.1,20.66,18.37,7.16,17.24,6.83,34.23-2.39,50.43-1.44,2.53-2.91,5.02-4.28,7.61-4.53,8.58-1.75,18.83,6.09,22.47,2.49,1.16,5.11,1.7,7.78,1.71,3.53.01,7.04.55,10.55.74,21.46,1.18,45.07,28.29,47.47,55.5.82,9.27-.32,18.14-2.88,26.75-6.04,20.34-16.94,35.97-31.31,47.99-13.91,11.64-28.8,21.19-44.04,29.85-10.23,5.81-20.87,7.25-31.76,2.47-9.73-4.27-13.97-13.02-13.03-25.74.56-7.54,2.03-15.08.7-22.76-1.1-6.35-2.82-9.18-6.35-9.83-3.97-.73-7.28,1.52-9.49,7-1.3,3.23-2.22,6.72-3.16,10.16-2.94,10.75-6.89,20.88-12.37,29.98-9.83,16.29-23.41,20.88-39.04,18.45-2.89-.45-5.73-1.63-8.52-2.75-6.98-2.8-9.44-6.94-9.48-16.12-.02-8.58,1.01-17.03,2.93-25.27,3.02-13,7.57-25.18,13.39-36.63,1.82-3.58,4.08-6.65,6.69-9.34.79-.81,1.59-1.61,2.32-2.5.77-.94,1.23-2.12.74-3.46-.57-1.55-1.72-1.9-2.96-1.7-2.37.36-4.55,1.41-6.59,2.94-7.46,5.6-12.54,13.64-15.6,23.62-4.01,13.12-6.86,26.64-8.6,40.51-.57,4.49-1.17,8.97-2.23,13.33-2.14,8.79-6.46,15.25-13.09,19.58-11.93,7.78-24.28,7.5-36.9,3.55-.15-.04-.28-.1-.42-.16-16.66-6.11-24.9-18.68-26.27-40.11-1.37-21.44,1.7-41.87,8.7-61.57,8.48-23.88,20.14-45.01,34.38-64.22,13.18-17.76,28.37-32.01,45.57-43.25,9.51-6.21,19.57-7.33,29.99-6.18,2.53.28,4.82,1.45,6.93,3.25,1.93,1.65,3.93,3.2,5.96,4.65.91.65,2,.8,2.85-.28.7-.9.52-2.03.29-3.09-.62-2.83-1.62-5.45-2.94-7.89-2.21-4.09-4.73-7.87-7.4-11.52-3.27-4.48-6.09-9.36-8.13-14.83-3.45-9.2-2.3-14.31,4.34-20.14,3.77-3.31,8.04-5.29,12.43-6.83,7.81-2.75,15.81-4.01,23.92-4.6,9.68-.7,19.31-2.42,28.48-2.08h0Z"/>
    </g>
  </g>
</svg>