<?xml version="1.0" encoding="UTF-8"?>
<svg id="Layer_2" data-name="Layer 2" xmlns="http://www.w3.org/2000/svg" viewBox="0 0 372.54 310.83">
  <g id="Layer_2-2" data-name="Layer 2">
    <path d="m67.16,215.25c.3,6.26.25,15.52.67,24.78.46,10.17-.36,20.35-3.7,30.12-4.83,14.16-14.89,16.97-26.27,7.34-4.06-3.43-7.14-7.73-10.24-11.99-14.19-19.57-21.97-41.56-25.23-65.41C.06,183.1-.47,166.05.38,148.99c1.05-21.21,6.04-41.66,13.64-61.46,2.6-6.78,5.48-13.46,8.18-20.2,5.43-13.53,15.44-23.27,27.05-31.28,19.81-13.66,41.98-21.42,65.86-24.21,12.1-1.41,24.03-3.82,36.03-5.86,11.3-1.91,22.7-2.89,34.09-3.91C195.72,1.13,206.24,0,216.74,0c16.51,0,33.04.24,49.5,1.84,8.93.86,17.5,3.33,25.87,6.39,23.32,8.52,44.5,20.48,61.65,38.88,14.81,15.88,20.79,34.27,18.2,55.99-3.09,25.8-9.4,50.67-18.97,74.76-3.38,8.52-8.14,16.22-14.16,23.13-2.4,2.75-5.2,5.09-8.37,6.92-5.56,3.22-8.84,2.02-10.69-4.09-1.58-5.21-2.86-10.53-5.36-15.41-.99-1.94-1.95-3.93-3.24-5.66-4.33-5.83-9.02-6.17-14.18-1.15-3.05,2.97-5.12,6.62-6.73,10.48-2.18,5.19-4.3,10.42-6.15,15.73-8.87,25.38-17.15,50.96-26.44,76.19-2.2,5.98-4.67,11.83-8.22,17.17-5.69,8.57-16.39,11.92-25.88,8.13-10.23-4.08-15.82-13.37-14.31-23.69.9-6.15,2.77-12.03,5.03-17.79,6.05-15.39,12.9-30.44,18.59-45.97,7.8-21.3,13.1-43.08,12.83-65.94-.04-3.46-.22-6.89-1.2-10.25-2.52-8.62-9.07-12.71-17.9-11.02-4.72.9-8.88,3.14-12.86,5.74-5.48,3.57-10.84,7.35-16.48,10.64-14.48,8.44-29.24,9.55-44.76,2.22-9.11-4.3-18.07-8.78-25.43-15.61-12.54-11.64-38.73-10.88-50.14,10.64-3.97,7.49-5.96,15.57-7.43,23.83-2.38,13.3-2.66,26.73-2.33,43.18Z"/>
  </g>
</svg>