<?xml version="1.0" encoding="UTF-8"?>
<svg id="Layer_2" data-name="Layer 2" xmlns="http://www.w3.org/2000/svg" viewBox="0 0 273.15 288.19">
  <g id="Layer_2-2" data-name="Layer 2">
    <path d="m71.81,108.79c1.49-.43,1.66-1.64,1.89-2.62,1.45-6.34,4.91-11.63,8.4-16.98,14.06-21.55,30.2-41.4,48.8-59.16,9.07-8.66,18.81-16.59,29.63-23.05,4.22-2.52,8.55-4.85,13.28-6.26,9.01-2.69,16.47,2.45,17.35,11.86.4,4.27-.55,8.3-2.19,12.21-4.52,10.77-10.72,20.62-16.74,30.56-7.25,11.97-14.51,23.93-21.7,35.93-4.13,6.91-7.08,14.31-8.89,22.17-.74,3.22-1.06,6.46-.8,9.74.52,6.43,3.65,9.44,10.14,9.72,9.11.39,18.14-.81,27.16-1.84,11.93-1.36,23.62-4.14,35.34-6.64,16.49-3.52,32.87-2.41,49.28.26.9.15,1.79.32,2.67.57,7.3,2.08,9.67,7.7,6,14.34-1.71,3.1-4.28,5.43-7.42,7.03-3.56,1.81-7.1,3.74-10.84,5.1-20.53,7.46-39.06,18.43-56.34,31.65-4.47,3.42-9.15,6.58-13.47,10.19-4.77,3.98-4.9,5.1-2.6,10.8,3.47,8.58,7.48,16.94,9.82,25.97,4.07,15.67,2.54,30.97-2.47,46.12-.86,2.61-2.15,5.01-3.77,7.22-3.49,4.73-7.57,5.71-12.87,3.05-2.95-1.48-5.41-3.64-7.87-5.81-10.24-9.01-19.91-18.61-29.37-28.42-5.56-5.76-11.24-11.47-18.34-15.33-11.98-6.51-24.61-9.75-38.31-6.78-4.65,1.01-9.31,2.22-13.09,5.16-11.11,8.64-23.71,14.82-35.66,22.07-4.19,2.55-8.39,5.09-12.64,7.53-1.57.9-3.23,1.69-4.95,2.27-6.42,2.15-11.92-2.21-11.18-8.95.52-4.73,2.21-9.16,4.25-13.46,5.62-11.84,12.48-22.98,19.27-34.17,9.53-15.71,20.32-30.56,30.8-45.62,5.86-8.43,5.78-8.56-1.91-14.95-3.09-2.57-6.04-5.23-8.46-8.45-5.15-6.87-11.87-12.24-17.69-18.48-7.35-7.87-10.36-17.34-11.14-27.75-1.21-16.23,2.65-31.39,10.08-45.71,3.19-6.14,7.04-11.88,11.47-17.21,2.24-2.69,4.78-5.01,8.14-6.2,4.16-1.47,7.16-.07,8.65,4.05.93,2.59,1.25,5.3,1.16,8.05-.46,15.49,3.23,30.29,7.71,44.91,2.34,7.64,5.24,15.1,7.89,22.64.35.99.63,2.04,1.49,2.65Z"/>
  </g>
</svg>