<?xml version="1.0" encoding="UTF-8"?>
<svg id="Layer_2" data-name="Layer 2" xmlns="http://www.w3.org/2000/svg" viewBox="0 0 275.97 276.31">
  <g id="Layer_2-2" data-name="Layer 2">
    <path d="m17.08,187.68c-.49-6.81,1.46-15.53,2.87-24.31,1.39-8.67,1.35-17.42.45-26.08-.9-8.59-5.55-15.62-11.16-22.02-2.15-2.46-4.37-4.88-6.34-7.47-2.15-2.83-3.5-6.1-2.61-9.69,5.15-20.59,15.17-37.61,35.02-47.39,5.52-2.72,11.5-3.25,17.41-4.15,4.38-.66,8.49-1.9,12.08-4.61,2.05-1.54,3.46-3.53,4.97-5.61,4.82-6.64,7.93-14.34,12.73-20.86C90.76,4.3,101.8-1.86,116.38.5c14.49,2.35,27.04,8.16,36.42,19.87,2.53,3.16,5.86,5.41,9.16,7.67,15.46,10.59,31.37,20.39,48.38,28.34,7.57,3.54,14.78,7.76,21.89,12.17,15.44,9.57,25.6,23.57,32.81,39.73,4.73,10.61,7.46,21.98,9.9,33.37,2.42,11.28.29,22.08-3.71,32.55-6.78,17.73-16.17,34.07-26.89,49.73-8.45,12.34-18.79,23.09-28.21,34.61-2.44,2.98-5.52,5.29-8.97,7-11.48,5.67-23.32,10.18-36.3,10.73-5.47.23-10.88-.49-16.17-1.91-6.14-1.65-12.24-3.43-18.35-5.19-11.45-3.28-22.96-2.97-34.51-.55-.71.15-1.43.31-2.11.55-16.33,5.88-31.95,2.19-47.17-3.99-10.49-4.26-18.14-12.07-23.06-22.21-8.12-16.73-12.52-34.41-12.43-55.28Z"/>
  </g>
</svg>