<?xml version="1.0" encoding="UTF-8"?>
<svg id="Layer_2" data-name="Layer 2" xmlns="http://www.w3.org/2000/svg" viewBox="0 0 279.38 278.83">
  <g id="Layer_2-2" data-name="Layer 2">
    <path d="m29.72.05c21.5-.32,39.95,5.77,57.45,15.29,14.85,8.07,29.51,16.5,45.35,22.56,4.75,1.82,9.57,3.45,14.41,5.01,12.1,3.89,24.3,4,36.52.56,2.09-.59,4.14-1.39,6.1-2.31,6.26-2.91,12.56-5.75,18.69-8.92,8.37-4.32,17.36-6.44,26.56-7.73,6.83-.96,13.71-1.64,20.59-2.09,7.32-.47,14.07,1.07,19.41,6.69,2.63,2.76,4.07,5.87,4.42,9.67.96,10.41-2.31,19.76-7.13,28.66-5.29,9.75-11.41,18.99-17.73,28.1-6.11,8.81-12.21,17.62-17.78,26.79-7.95,13.08-9.3,26.87-4.64,41.36,1.73,5.38,4.02,10.52,6.33,15.65,9.66,21.44,15.05,43.92,16.62,67.34.18,2.75-.19,5.44-.62,8.13-1.78,11.22-8.43,16.46-19.73,15.56-11.75-.94-22.02-5.89-31.89-11.84-9.83-5.92-18.83-12.99-27.77-20.16-3.82-3.06-7.76-6.01-11.83-8.74-15.65-10.53-31.57-10.53-47.64-.92-10.19,6.1-18.76,14.31-27.96,21.7-11.08,8.88-22.33,17.49-35.42,23.29-6.51,2.89-13.2,5.14-20.46,5.14-9.96,0-15.54-4.27-18.08-13.95-1.22-4.66-1.19-9.36-.31-14.05,1.25-6.64,3.56-12.94,6.45-19.04,6.54-13.8,14.45-26.88,21.62-40.34,7.36-13.83,14-27.94,17.39-43.35,4.95-22.52,1.54-43.35-12.87-61.81-8.49-10.88-17.29-21.53-25.83-32.37-7.6-9.64-12.94-20.58-17.86-31.74-.22-.5-.39-1.02-.57-1.53C-2.03,10.85.52,5.65,10.55,2.42,17.2.27,24.08-.16,29.72.05Z"/>
  </g>
</svg>