<?xml version="1.0" encoding="UTF-8"?>
<svg id="Layer_2" data-name="Layer 2" xmlns="http://www.w3.org/2000/svg" viewBox="0 0 178.74 309.09">
  <g id="Layer_2-2" data-name="Layer 2">
    <path d="m130.27,34.29c-1.62,33.86,8.23,62.74,26.13,89.2,5.29,7.83,10.63,15.61,14.95,24.04.83,1.61,1.65,3.23,2.4,4.88,5.78,12.83,7.25,25.56.6,38.76-6.2,12.31-11.43,25.11-17.46,37.52-6.99,14.37-13.94,28.75-19.71,43.67-2.69,6.96-4.8,14.09-6.82,21.25-1.09,3.86-2.39,7.65-4.75,10.94-3.81,5.3-9.07,6.01-14.05,1.87-3.1-2.57-5.62-5.64-7.72-9.09-3.78-6.22-6.92-12.78-10.07-19.31-14.89-30.85-35.86-57.03-60.83-80.28-10.09-9.4-19.37-19.65-28.37-30.13-4.88-5.69-5.67-11.82-3.17-18.78,3.59-9.99,10.18-17.88,16.89-25.81,14.2-16.77,29.48-32.58,43.34-49.65,13.9-17.12,25.95-35.44,35.72-55.23,2.49-5.05,4.93-10.15,9.19-14.05,3.72-3.41,7.98-4.92,13.02-3.66,5.03,1.26,8.33,4.25,9.52,9.39.7,3.01,1.26,6.03,1.23,9.15-.06,5.63-.02,11.26-.02,15.31Z"/>
  </g>
</svg>