<?xml version="1.0" encoding="UTF-8"?>
<svg id="Layer_2" data-name="Layer 2" xmlns="http://www.w3.org/2000/svg" viewBox="0 0 315.21 282.27">
  <g id="Layer_2-2" data-name="Layer 2">
    <path d="m288.53,275.84c-8.88-.49-19.52-2.95-30.24-4.82-17.38-3.04-34.85-5.35-52.52-4.88-14.34.38-28.63,1.79-42.84,3.68-21.77,2.9-43.5,6.21-65.3,8.88-12.06,1.47-24.21,2.29-36.38,2.75-8.34.31-16.67.93-25.03.8-3.66-.06-7.26-.52-10.81-1.28-13.97-2.98-21.16-9.23-24.67-26.09-1.53-7.33-.53-14.44,1.58-21.49,3.73-12.44,9.48-23.97,16.17-35.03,17.12-28.35,36.35-55.22,57.19-80.94,15.09-18.63,29.07-38.14,44.76-56.3,2.97-3.44,5.42-7.27,7.61-11.28,6.72-12.31,14.74-23.77,23.27-34.87,3.55-4.62,7.45-8.94,12.51-12.01,7.61-4.62,13.58-3.96,19.43,2.66,6.44,7.28,11.2,15.7,14.31,24.88,6.24,18.42,13.64,36.36,21.67,54.07,10.63,23.46,24.74,44.77,39.75,65.59,11.69,16.22,24.45,31.61,36.06,47.88,6.56,9.19,12.6,18.67,16.63,29.29,4.21,11.09,4.95,22.21.68,33.51-4.24,11.21-9.86,15.19-23.81,14.98Z"/>
  </g>
</svg>