<?xml version="1.0" encoding="UTF-8"?>
<svg id="Layer_2" data-name="Layer 2" xmlns="http://www.w3.org/2000/svg" viewBox="0 0 185.1 288.22">
  <g id="Layer_2-2" data-name="Layer 2">
    <path d="m81.38,288.04c-15.72,2.16-39.09-15.43-39.77-33.97-.33-9.05.26-18.13,4.06-26.68,3.85-8.68,2.47-11.21-6.83-13.21-3.02-.65-6.1-1.03-9.06-1.88-6.63-1.9-11.08-6.09-12.52-13.01-.89-4.26-1.72-8.55-2.32-12.86-.71-5.01.33-9.77,2.89-14.15,4.07-6.96,8.88-13.26,15.47-18.09,5.73-4.19,10.97-8.96,16-13.97,1.81-1.81,3.46-3.74,4.55-6.08,2.35-5.06.68-9.41-4.44-11.58-.83-.35-1.7-.65-2.58-.87-9.54-2.33-19.16-4.23-28.98-4.77-12.96-.72-19.06-7.81-17.63-20.74.5-4.57,1.87-8.88,3.72-13.05,6.32-14.22,14.17-27.54,25.06-38.7C48.52,24.41,70.48,8.64,98.39,1.38c23.64-6.15,48.67,8.84,54.19,33.68,1.52,6.86,2.01,13.61-1.73,20.12-1.14,1.99-1.58,4.45-2.03,6.75-2.11,10.79-7.67,19.47-15.97,26.5-3.47,2.94-6.93,5.88-9.99,9.25-3.24,3.56-4.66,7.74-4.04,12.54.7,5.44,4.49,7.53,9.33,5.08,1.78-.9,3.41-2.08,5.11-3.13,8.19-5.09,17.18-7.73,26.71-8.67,3.64-.36,7.26-.04,10.81.88,10.02,2.6,15.94,11.88,13.95,22.04-1.43,7.3-4.58,13.76-9.94,19.03-1.3,1.27-2.52,2.65-3.97,3.73-11.54,8.59-19.1,20.36-25.69,32.75-6.06,11.38-11.44,23.12-17.25,34.63-4.36,8.63-5.42,18-6.7,27.36-.76,5.57-1.9,11.09-2.7,16.66-1.9,13.28-16.67,26.58-33.31,27.45-1.45.08-2.91.01-3.78.01Z"/>
  </g>
</svg>