<?xml version="1.0" encoding="UTF-8"?>
<svg id="Layer_2" data-name="Layer 2" xmlns="http://www.w3.org/2000/svg" viewBox="0 0 330.93 281.52">
  <g id="Layer_2-2" data-name="Layer 2">
    <path d="m186.32,281.46c-14.9.24-28.17-2.32-41-7.39-13.51-5.33-23.63-14.77-31.88-26.35-4.53-6.35-6.06-13.53-3.88-21.25.15-.52.18-1.08.37-1.59,4.26-11.56-.03-20.88-7.65-29.36-8.98-10.01-19.81-17.54-31.57-23.88-11.67-6.29-23.52-12.26-34.33-20.03-9.37-6.73-17.87-14.36-24.13-24.13-16.28-25.44-15.87-51.43-1.52-77.37,9.32-16.86,22.55-30.19,39.3-39.89C60.43,4.2,71.63.44,83.6.04c12.22-.42,23.71,2.85,34.24,9.25,7.84,4.77,14.58,10.79,20.64,17.63,5.18,5.85,10.22,11.82,14.82,18.14,3.04,4.17,6.91,7.37,10.99,10.47,9.1,6.93,23.11,5.16,30.46-2.55,3.76-3.94,7.51-7.9,11.14-11.96,4.61-5.15,9.41-10.09,14.61-14.65,25.03-21.93,66.76-20.66,92.77-1.22,11.09,8.28,15.37,20.22,17.22,33.44,1.81,12.96-2.08,24.38-8.66,35.19-4.46,7.32-9.9,13.91-15.69,20.19-5.91,6.41-11.92,12.73-18,18.97-4.79,4.91-8.1,10.59-10.32,17.09-4.03,11.83-5.08,24.13-6.27,36.41-1.74,17.85-5.95,34.99-13.27,51.44-10.01,22.51-27.55,35.41-50.9,41.36-7.28,1.86-14.67,2.49-21.05,2.23Z"/>
  </g>
</svg>