<?xml version="1.0" encoding="UTF-8"?>
<svg id="Layer_2" data-name="Layer 2" xmlns="http://www.w3.org/2000/svg" viewBox="0 0 290.57 281.55">
  <g id="Layer_2-2" data-name="Layer 2">
    <path d="m.01,212.63c.38-30.82,10.9-57.57,32.57-79.61,9.48-9.64,20.44-17.43,32.54-23.56,8.81-4.46,18.16-4.97,27.65-3.25,8.01,1.45,11.88,6.1,12.52,14.24.41,5.21-.87,10.08-2.97,14.8-4.99,11.22-12.35,20.49-22.52,27.45-8.03,5.49-14.99,11.93-20.18,20.33-5.85,9.46-7.85,19.41-5.48,30.25.75,3.42,2.09,6.59,4.35,9.29,2.45,2.94,5.19,3.61,8.78,2.19,2.57-1.01,4.68-2.73,6.7-4.6,7.21-6.65,12.15-14.92,16.51-23.53,11.3-22.33,18.82-46.03,25.06-70.17,4.15-16.07,6.09-32.43,6.91-48.99.62-12.5,1.28-25.04,4.15-37.31,3.26-13.93,9.77-25.79,21.88-33.98,7.33-4.95,15.21-7.68,24.22-5.33,3.94,1.03,7.46,2.76,10.63,5.31,6.87,5.54,8.02,11.53,3.64,19.21-1.83,3.21-4.54,5.65-7.06,8.26-4.75,4.94-5.89,10.63-3.73,17.1,2.15,6.45,6.51,9,13.03,7.33,2.1-.54,4.18-1.28,6.17-2.16,8.99-3.99,18.28-4.64,27.72-2.22,27.79,7.12,48.14,23.26,59.31,49.99,5.36,12.83,8.86,26.26,8.05,40.3-1.48,25.76-10.99,47.67-32.37,63.23-12.89,9.38-27.55,12.86-43.35,10.84-9.79-1.25-17.26-6.22-22.04-15.08-4.71-8.74-5.72-17.86-3.52-27.45,1.14-4.96,2.37-9.89,4.21-14.65,1.45-3.76,2.19-7.64,2.15-11.71-.04-5.39-2.3-9.52-6.81-12.28-7.36-4.5-15.5-6.17-24.02-5.68-4.4.25-7.99,2.57-10.4,6.24-3.72,5.69-5.23,11.88-3.68,18.7,1.06,4.64,3.16,8.89,4.68,13.36,3.95,11.53,1.98,22.25-4.57,32.22-3.46,5.27-8.03,9.39-14.32,11.15-8.02,2.24-13.34-2.26-12.53-10.54.21-2.16.54-4.35.44-6.5-.1-2.2-1.35-2.85-3.36-1.8-1.43.74-2.75,1.78-3.93,2.88-5.34,4.95-8.86,11.02-10.61,18.07-1.88,7.58-3.49,15.23-5.48,22.78-3.97,15.14-12.5,27.36-24.83,36.81-8.03,6.15-17.31,8.2-27.32,6.32-17.09-3.2-28.92-13.77-38.09-27.75C2.7,240.88-.19,227.15.01,212.63Z"/>
  </g>
</svg>