<?xml version="1.0" encoding="UTF-8"?>
<svg id="Layer_2" data-name="Layer 2" xmlns="http://www.w3.org/2000/svg" viewBox="0 0 281.73 277.35">
  <g id="Layer_2-2" data-name="Layer 2">
    <path d="m127.26,99.99c2.34-1,2.31-2.54,2.38-3.96.12-2.55-.15-5.07-.53-7.59-1.52-10.27.03-20.31,2.89-30.12,1.49-5.09,4.32-9.6,9-12.62,3.28-2.12,6.68-2.93,10.24-.8,3.65,2.19,4.36,5.73,3.62,9.51-.95,4.81-2.24,9.55-3.42,14.3-2.03,8.15-3.31,16.38-2.77,24.8.3,4.62,1.98,6.85,5.53,7.74,3.3.82,5.71-.37,6.95-3.56.81-2.07,1.02-4.22.55-6.42-.9-4.26-1.65-8.56-2.64-12.8-2.15-9.19-.35-17.75,4.36-25.67,8.02-13.48,19.58-23.25,33.27-30.62,5.2-2.8,10.03-2.09,14.76,1.42,9.57,7.09,14.41,21.2,11.04,32.59-2.29,7.74-6.33,14.21-13.06,18.88-3.73,2.59-7.39,5.28-11.04,7.99-3.42,2.54-6.1,5.76-7.68,9.72-2.51,6.28-.85,9.38,5.58,11.41,8.48,2.68,17.19,3.5,25.86,2.05,9.1-1.53,17.66,0,26.33,2.36,13.22,3.58,22.69,11.79,29.74,23.19,7.83,12.68,2.09,27.96-12.08,32.41-7.48,2.35-14.7,1.5-21.87-1.18-5.61-2.1-10.91-4.97-16.64-6.8-4.71-1.5-9.46-2.62-14.43-2.42-1.26.05-2.6,0-3.77.4-2.14.72-4.06,2.15-4.5,4.37-.43,2.17,1.9,2.87,3.34,3.81,1.97,1.29,4.1,2.34,6.16,3.48,1.91,1.05,3.89,1.99,5.72,3.16,11.62,7.34,14.88,20.39,7.9,32.19-2.99,5.06-7.18,9.15-12.02,12.46-3.04,2.08-6.54,3.12-10.24,3.4-4.73.36-8.58-1.11-11.16-5.29-1.24-2.01-2.52-3.99-3.78-5.99-.48-.77-.87-1.61-1.41-2.33-1.17-1.57-2.26-3.96-4.53-3.18-2.45.83-1.61,3.42-1.24,5.27.72,3.56,1.79,7.04,2.65,10.57,5.15,21.21-.94,39.4-15.14,55.28-4.43,4.96-10.14,6.58-16.79,5.77-13.39-1.62-22.33-9.79-25.64-23.92-2.92-12.43-1.72-24.91,2.59-37.02,1.09-3.08,2.13-6.18,3.05-9.31.4-1.38.61-2.85.63-4.29.04-2.53.36-5.77-2.54-6.57-2.9-.8-3.56,2.47-4.62,4.45-6.06,11.38-9.15,23.65-10.85,36.35-.99,7.44-3.13,14.53-6.91,21.1-6.43,11.18-15.93,15.01-28.15,11.07-5.56-1.79-10.83-4.25-15.54-7.77-10.71-8.01-15.45-18.79-13.25-31.9,3.1-18.49,11.68-33.84,27.73-44.42,4.09-2.7,8.09-5.59,11.25-9.42,1.23-1.49,3.16-3.2,1.88-5.24-1.44-2.29-4.03-1.35-5.95-.56-6.62,2.73-12.3,7.05-17.77,11.51-7.6,6.19-14.91,12.75-22.29,19.21-4.35,3.81-9.41,6.11-14.97,7.47-4.67,1.14-8.91.32-12.99-2.32-9.8-6.36-15.71-15.41-18.89-26.44-1.72-5.94-1.48-11.85.39-17.71,2.06-6.47,5.32-12.3,9.36-17.75,4.08-5.51,9.7-7.47,16.21-7.14,3.79.19,7.58.84,11.33,1.53,14.98,2.74,29.96,3.04,44.95.14,1.02-.2,2.46.12,2.78-1.19.38-1.58-1.05-2.12-2.18-2.66-1.83-.88-3.81-1.17-5.83-1.23-13.3-.4-26.35-2.94-39.45-4.83-9.7-1.4-18.44-5.1-25.29-12.69-8.93-9.91-8.7-21.28-4.55-31.51.84-2.07,2.38-3.62,4.07-5.04,3.37-2.83,7.08-5.11,11.13-6.79,9.22-3.84,18.82-3.63,28.4-2.04,4.38.73,7.94,3.41,11.17,6.48,5.72,5.42,10.11,11.88,14.7,18.2,1.19,1.64,2.31,4.94,4.42,3.9,2.32-1.14.8-4.19.15-6.38-.78-2.63-2.16-4.99-3.59-7.32-5.32-8.68-9.64-17.92-14.68-26.74-10.4-18.19-.4-46.95,20.91-55.8,4.75-1.97,9.64-3.17,14.88-2.19,1.95.36,4,.53,5.97.35,13.28-1.23,25.4,12.89,24.41,26.91-1.04,14.68-2.9,29.25-4.58,43.86-1.07,9.38-.81,18.8,1.03,28.52Z"/>
  </g>
</svg>